<svg width="31" height="31" viewBox="0 0 31 31" fill="none" xmlns="http://www.w3.org/2000/svg">
<mask id="mask0_3_190" style="mask-type:alpha" maskUnits="userSpaceOnUse" x="0" y="0" width="31" height="31">
<rect width="31" height="31" fill="#D9D9D9"/>
</mask>
<g mask="url(#mask0_3_190)">
<path d="M5.1665 24.5417V21.9583H7.74984V12.9167C7.74984 11.1299 8.28803 9.54219 9.36442 8.15365C10.4408 6.7651 11.8401 5.85556 13.5623 5.425V4.52083C13.5623 3.98264 13.7507 3.52517 14.1274 3.14844C14.5042 2.7717 14.9616 2.58333 15.4998 2.58333C16.038 2.58333 16.4955 2.7717 16.8722 3.14844C17.249 3.52517 17.4373 3.98264 17.4373 4.52083V5.425C19.1596 5.85556 20.5589 6.7651 21.6353 8.15365C22.7116 9.54219 23.2498 11.1299 23.2498 12.9167V21.9583H25.8332V24.5417H5.1665ZM15.4998 28.4167C14.7894 28.4167 14.1813 28.1637 13.6754 27.6578C13.1695 27.1519 12.9165 26.5438 12.9165 25.8333H18.0832C18.0832 26.5438 17.8302 27.1519 17.3243 27.6578C16.8184 28.1637 16.2103 28.4167 15.4998 28.4167ZM10.3332 21.9583H20.6665V12.9167C20.6665 11.4958 20.1606 10.2795 19.1488 9.26771C18.137 8.2559 16.9207 7.75 15.4998 7.75C14.079 7.75 12.8627 8.2559 11.8509 9.26771C10.8391 10.2795 10.3332 11.4958 10.3332 12.9167V21.9583Z" fill="#1C1B1F"/>
</g>
</svg>
